<?xml version="1.0" encoding="UTF-8"?>
<svg xmlns="http://www.w3.org/2000/svg" version="1.1" viewBox="0 0 563.73 563.73">
  <defs>
    <style>
      .cls-1 {
        fill: none;
      }

      .cls-2 {
        fill: #0097c6;
      }
    </style>
  </defs>
  <!-- Generator: Adobe Illustrator 28.7.1, SVG Export Plug-In . SVG Version: 1.2.0 Build 142)  -->
  <g>
    <g id="Layer_1">
      <path class="cls-2" d="M368.96,133.81c-13.01-5.45-19.66-15.45-26.2-15.45-18.63,0-20.13,9.69-35.56-1.4-27.17-19.5-24.9-17.12-41.57-6.62-12.63,7.96-54.71,12.49-54.71,12.49,0,0,7.9,3.06,20.35,7.72,6.9,2.58,18.17,7.67,31.73,10.89,20.41,4.86,44.92,0,79.29,8.75,0,0,15.06-.82,35.36.11,10.5.47,22.4,1.41,34.36,3.16,0,0-22.93-11.22-43.05-19.64ZM188.3,119.06c-23.89-8.28-42.73-20.59-70.33-5.62-18.8,10.19-40.39,25.3-49.28,67.87-8.52,40.81-18.66,39.07-13.04,79.97,3.95,28.76,43.32,66.49,73.55,82.23,24.42,12.72,46.22,17.73,46.22,17.73,2.05-1.9-16.83-10.33-20.94-13.39-3.74-2.78-11.53-2.81-25.72-22.98-12.82-18.21.17-31.72,1.85-59.69.94-15.67-7.3-26.61-14.97-36.49-9.32-12-17.94-22.96-8.42-45.44,7.62-17.99,19.22-27.64,35.56-33.16,18.16-6.14,43.01-3.74,59.01-1.53,20.11,2.79,32.15,4.99,62.63,8.74,10.36,1.27,22.09-.32,32.13-1.76,13.09-1.87,19.96-2.09,30.88-2.09,0,0-6.41-.9-17.41-2.89-8.98-1.62-20.41.18-34.84-.7-22.93-1.4-55.31-19.87-86.87-30.8ZM349.47,456.69c-12.78-2.71-25.51-9.13-55.12-14.68-19.08-3.58-66.48-30.03-87.97-28.2-17.68,1.5-40.72,1.31-52.09-7.29-13.36-10.12-16.71-20.02-3.61-20.49,10.79-.39,19.05-1.97,20.92-10.39,2.61-11.74-13.82-12.2-27.38-20.01.2.38,4.86,15.91-16.84,3.12-16.6-9.78-35.37,8.22-30.62,28.56,3.28,14.03,14.56,18.84,14.01,29.38-1.18,22.53-5.05,39.16,30.06,51.79,41.69,15,95.82-5.1,126.63-10.31,63.46-10.76,59.95,22.23,121.32-3.34-.99-.41-25.38,4.83-39.32,1.87ZM510.77,330.94c-.62-18.71,1.39-24.63-35.56-33.69-22.28-5.46-38,6.33-38,6.33,0,0,2,7.12,4.99,10.29,8.42,8.88,11.05,10.54,8.42,18.47-5.15,15.51-19.06,15.29-20,34.15-.78,15.56-3.41,34.05-20.7,58.07-16.85,23.39-56.15,25.72-56.15,25.72,14.16,2.19,38.17-3.15,62.16-12.75,22.82-9.13,33.58-44.23,50.55-54.84,39.92-24.95,45.16-25.57,44.29-51.78ZM496.55,228.28c-3.48-4.84-6.81-14.63-7.91-20.49-14.5-76.66-197.56-44.05-197.56-44.05,24.17,4.54,30.6,12.39,60.42,17.26,24.41,3.97,45.88-9.2,68.25,2.26,23.86,12.22,37.13,37.81,9.06,70.32-8.67,10.05-8.62,33.15-4.55,42.23,2.39,5.34,7.65,17.41,14.2,22.09,0,0-7.14-11.46-4.88-16.76,1.62-3.78,6.66-14.52,17.04-13.19,14.51,1.87,40.71,1.82,47.73-16.9,7.92-21.12,5.61-32.48-1.79-42.78ZM330.37,330.06c-29,.95-40.32-13.4-56.91-25.57-11.32-8.28-40.15-3.21-48.66-15.6-5.35-7.77-10.54-21.14-7.17-37.43,3.43-16.58,9.95-29.85,10.28-30.4-.66.56-27.94,30.9-26.03,68.96,1.56,31.16,16.72,20.7,33.64,44.57,12.93,18.24,47.42,20.16,65.63,12.78,16.29-6.6,26.42-11.22,58.23-17.78,0,0-4.71-.32-29.01.46ZM365.94,432.52c-19.34-3.21-45.95-14.85-64.1-35.55-10.12-11.54-35.08-18.24-48.19-28.08-12.36-9.27-22.45-34.56-35.08-40.36-28.47-13.06-41.8-22.27-48.66-37.74-15.93-35.87,21.98-54.85,38.36-74.21,10.29-12.17,4.98-23.13,26.02-30.16,26.83-8.95,42.81-3.07,53.99-7.01,16.68-5.87,29.11-2.78,31.65-2.02-6.92-2.33-87.35-28.27-140.22-1.9-21.9,10.93-46.69,33.48-38.19,67.71,8.89,35.76-18.22,44.13-3.74,76.12,6.33,13.99,16.74,21.44,28.57,27.62,16.32,8.54,34.7,6.25,49.41,23.84,6.54,7.83,14.43,23.54,22.28,30.16,9.11,7.7,19.01,14.5,29.44,20.19,37.07,20.24,81,26.57,121.32,10.02-.93.3-10.89,3.37-22.85,1.38ZM397.75,197.66c-15.16-5.8-43.32-5.89-52.65-9.13-32.22-11.15-67.45-3.5-89.2,12.56-37.18,27.45-13.36,50.42-3.66,55.93,15.9,9.05,26.02,13.29,46.16,8.11,15.74-4.05,23.41-8.68,43.36-8.11,17.62.51,24.79,18.17,23.72,34.67-1.21,18.47-15.44,26.67-29.75,31.35,0,0,33.79,5.66,53.14-12.17,10.98-10.11,14.3-25.6,16.05-41.71.33-3.03.8-16.63,7.11-21.44s9.51-7.21,10.07-16.16c1.21-19.4-14.04-29.96-24.33-33.9ZM317.44,226.82c-7.49,4.99-26.36,11.42-38.99,4.74-9.55-5.05-17.3-11.38-17.3-11.38,18.86,6.47,32.34,3.16,39.76-2.16,3.71-2.66-3.51-7.55-7.42-8.42-6.04-1.34-18.55-1.51-18.87-1.37,11.32-13.42,26.95-10.4,40.79-5.47,15.62,5.56,18.1,13.36,2.03,24.07ZM418.34,295.91c-3.75-14.51-1.88-34.63-1.88-34.63-3.09,6.8-4.89,24.29-4.68,34.62.45,20.91,1.53,45.09-21.81,56.61-26.79,13.25-40.88-4.67-77.36,7.03-35.03,11.24-62.1-6.16-63.37-6.99,15.6,16.1,41.18,21.7,63.37,33.66,13.78,7.42,16.83,22.33,28.51,29.47,20.37,12.45,37.9,9.83,37.9,9.83,14.03,0,22.6-1.4,32.97-18.25,13.81-22.46,8.93-41.44,14.75-59.42,6.89-21.34-5.63-41.1-8.42-51.93Z"/>
      <g>
        <path class="cls-1" d="M463.62,97.46c102.32,102.32,102.32,268.21,0,370.53-102.32,102.32-268.21,102.32-370.53,0-102.32-102.32-102.32-268.21,0-370.53,102.32-102.32,268.21-102.32,370.53,0Z"/>
        <g>
          <path class="cls-2" d="M540.68,323.08c.74-2.34,1.14-4.23,1.61-6.05.47-1.82.94-3.57,1.54-5.69.17-.98.35-2.01.55-3.09.13-1.09.28-2.22.42-3.39.28-2.35.57-4.84.88-7.42.07-.64.15-1.29.22-1.95.04-.65.09-1.31.13-1.97.09-1.32.18-2.66.27-3.99.16-2.67.42-5.35.49-7.97.07-2.62.14-5.17.2-7.59.04-1.21.08-2.38.11-3.51.05-1.13,0-2.21,0-3.24-.01-4.13.06-7.41.28-9.27.22.25,1.25,6.4,2,13.08.28,3.34.55,6.8.73,9.7.04.72.08,1.41.12,2.06,0,.64,0,1.24,0,1.78,0,1.08-.03,1.93-.07,2.46-.14,2.74-.28,5.38-.41,7.94-.19,2.55-.5,5.02-.75,7.41-.28,2.39-.5,4.71-.83,6.96-.38,2.24-.75,4.43-1.11,6.57-.38,2.14-.71,4.23-1.14,6.28-.47,2.04-.93,4.04-1.39,6.03-.47,1.98-.93,3.95-1.39,5.91-.55,1.94-1.11,3.87-1.66,5.81-.56,1.93-1.11,3.87-1.68,5.83-.56,1.96-1.29,3.9-1.94,5.88-.66,1.98-1.34,4-2.03,6.05-.32,1.03-.71,2.06-1.12,3.09-.4,1.04-.8,2.09-1.21,3.15-.81,2.13-1.63,4.31-2.48,6.56-.89,2.23-1.91,4.5-2.9,6.86-.5,1.18-1,2.38-1.52,3.6-.51,1.22-1.02,2.47-1.63,3.7-1.17,2.48-2.38,5.05-3.64,7.72-.86,1.89-2.79,6.15-5.13,11.62-1.11,2.76-2.6,5.69-4.09,8.78-1.51,3.08-3.02,6.32-4.83,9.37,0,0,.6-.85,1.55-2.2.97-1.34,2.11-3.3,3.44-5.39-2.11,4.45-5.06,9.19-8.18,14.3-.39.64-.79,1.28-1.19,1.93-.43.63-.86,1.26-1.3,1.89-.88,1.27-1.77,2.55-2.67,3.85-1.82,2.59-3.6,5.29-5.66,7.82-2,2.57-4.03,5.18-6.05,7.78-2.12,2.53-4.29,5.01-6.41,7.5-1.07,1.23-2.1,2.49-3.18,3.69-1.1,1.18-2.2,2.34-3.28,3.5-2.17,2.3-4.24,4.62-6.32,6.79,3.83-3.41,3.79-3.45,6.13-5.42-1.83,1.58-3.81,3.49-6.05,5.51-2.29,1.97-4.76,4.15-7.36,6.49-2.54,2.4-5.49,4.67-8.42,7.16-1.48,1.24-2.98,2.5-4.5,3.78-1.58,1.21-3.19,2.44-4.81,3.68-1.62,1.24-3.25,2.5-4.89,3.77-.81.65-1.66,1.24-2.52,1.83l-2.57,1.79c-3.44,2.37-6.81,4.89-10.38,7.03-1.76,1.11-3.5,2.21-5.23,3.3-.87.55-1.73,1.09-2.58,1.63-.88.5-1.76.99-2.63,1.49-1.74.98-3.46,1.95-5.15,2.9-.84.47-1.68.95-2.51,1.41-.82.48-1.65.92-2.49,1.32-2.69,1.22-4.99,2.24-7.1,3.15-2.11.92-4.02,1.75-6,2.44-3.1,1.38-6.19,2.76-9.27,4.14-3.13,1.26-6.3,2.43-9.46,3.65-3.14,1.27-6.41,2.24-9.66,3.31-1.63.53-3.27,1.06-4.91,1.59-1.64.55-3.34.93-5.02,1.41-1.69.46-3.38.92-5.09,1.39-1.71.46-3.42.97-5.18,1.33-3.5.79-7.06,1.6-10.69,2.42-3.66.67-7.38,1.36-11.19,2.06-1.9.4-3.85.6-5.81.9-1.96.29-3.95.57-5.96.87-13.54,1.67-30.24,2.26-47.93.85-17.69-1.35-36.3-4.68-53.74-9.45-14.98-4.3-29.95-10.13-44.34-17.34-14.4-7.21-28.21-15.79-41.07-25.34-12.83-9.6-24.62-20.22-35.34-31.22-10.7-11.02-20.43-22.39-28.83-33.86-.71-.95-1.53-1.98-2.33-3.16-.78-1.19-1.62-2.48-2.51-3.84-.87-1.38-1.79-2.83-2.75-4.34-.47-.76-.95-1.54-1.44-2.32-.48-.8-.91-1.63-1.37-2.47-1.81-3.37-3.76-6.89-5.53-10.56-1.68-3.71-3.34-7.47-4.88-11.15-1.05-1.96-2.13-4.03-3.24-6.22-.55-1.1-1.12-2.21-1.69-3.36-.58-1.14-1.16-2.31-1.66-3.54-2.06-4.89-4.44-10.09-6.31-15.79-4.14-11.26-7.45-24.06-9.84-37.43-.29-1.67-.57-3.36-.86-5.04l-.43-2.53c-.13-.85-.21-1.7-.32-2.55-.4-3.41-.81-6.84-1.21-10.27-.49-6.89-1.05-13.79-1.04-20.62-.03-1.71-.06-3.41-.08-5.11,0-1.7.09-3.38.13-5.06.05-1.68.11-3.35.16-5.01.07-1.66.07-3.32.23-4.95.26-3.27.52-6.5.78-9.67.1-1.59.32-3.15.52-4.7.2-1.55.39-3.08.59-4.6.3-2.22.5-4.35.89-6.37.38-2.02.76-3.95,1.14-5.79.39-1.84.77-3.59,1.12-5.25.39-1.66.87-3.21,1.29-4.69.85-2.95,1.66-5.57,2.4-7.87.8-2.28,1.61-4.23,2.26-5.91,2.61-11.38,6.36-22.72,10.67-34,1.15-2.79,2.3-5.6,3.45-8.41.55-1.42,1.22-2.78,1.87-4.16l1.95-4.14c2.49-5.59,5.56-10.91,8.44-16.37,1.54-2.67,3.17-5.29,4.76-7.94l2.41-3.97,2.6-3.85c1.74-2.56,3.47-5.14,5.25-7.69l5.63-7.43c.95-1.23,1.85-2.5,2.85-3.69l3-3.56c2.02-2.36,3.98-4.77,6.06-7.08,2.13-2.26,4.25-4.52,6.38-6.77,1.08-1.11,2.09-2.29,3.23-3.34l3.35-3.2c5.61-5.56,11.63-10.7,17.71-15.76,3.12-2.44,6.25-4.87,9.37-7.31,3.25-2.28,6.5-4.56,9.76-6.85,13.23-8.86,27.33-16.61,42.22-23.07,29.76-12.91,62.77-20.67,97.64-21.47,2.4-.03,5.34-.1,8.56-.21,1.61-.09,3.29-.03,5-.02,1.71.01,3.46.02,5.21.03,1.75.02,3.5-.02,5.2.05,1.71.08,3.38.15,4.99.22,1.61.06,3.14.12,4.57.18,1.43.05,2.76.08,3.94.19,4.18.76,8.29,1.43,12.41,2.26,20.01,2.97,39,7.72,56.71,14.19,17.7,6.47,34.11,14.66,48.82,24.38,1.27.83,2.5,1.64,3.69,2.42,1.15.84,2.28,1.67,3.37,2.46,2.16,1.61,4.2,3.13,6.12,4.55.97.7,1.86,1.44,2.71,2.17.86.73,1.69,1.43,2.49,2.11,1.59,1.38,3.08,2.67,4.47,3.87.69.61,1.35,1.2,1.99,1.77.61.61,1.2,1.19,1.76,1.76,1.13,1.14,2.16,2.2,3.11,3.2,1.9,2,3.48,3.72,4.75,5.27,4.92,6.39,5.77,9.26,6.79,12.12l-7.12-6.24c-1.2-1.02-2.36-2.09-3.59-3.07-1.25-.97-2.49-1.94-3.74-2.91-1.25-.97-2.5-1.94-3.75-2.91-1.26-.96-2.48-1.97-3.81-2.85-2.61-1.81-5.24-3.63-7.89-5.47-10.76-7.06-22.18-13.71-34.77-19.71-12.61-5.94-26.26-11.42-41.41-16.16-15.15-4.73-31.79-8.74-50.38-11.42-5.09-.92-10.93-1.26-17.17-1.75-6.26-.16-12.95-.38-19.8.02-13.7.59-28.02,2.39-40.85,5.06-10.8,2.47-22.12,4.9-32.74,8.47-1.33.42-2.66.85-3.98,1.27-1.33.4-2.6.95-3.88,1.42-2.56.98-5.08,1.96-7.54,2.96-1.24.47-2.42,1.07-3.59,1.62-1.17.57-2.33,1.13-3.47,1.69-1.13.57-2.25,1.14-3.36,1.7-1.1.57-2.18,1.13-3.2,1.78-3.18,1.3-6.95,2.81-11.12,4.68-2.05,1.01-4.2,2.08-6.46,3.19-1.13.56-2.28,1.14-3.46,1.73-1.19.57-2.32,1.29-3.52,1.95-2.37,1.36-4.83,2.77-7.35,4.23-1.28.7-2.49,1.56-3.75,2.36-1.26.82-2.53,1.65-3.81,2.49-1.29.84-2.58,1.7-3.9,2.56-1.3.88-2.55,1.85-3.85,2.79-2.56,1.91-5.22,3.8-7.82,5.83-10.35,8.18-20.47,17.71-29.64,27.77-9.13,10.11-17.02,20.94-23.58,31.18-2.35,3.31-.1-.69-4.08,5.18-8.61,14.89-16.12,30.97-22.09,48.02-5.96,17.05-10.45,35.07-12.83,53.69-2.43,18.61-2.93,37.78-1.3,56.98.1,1.2.16,2.41.29,3.6l.44,3.59c.3,2.4.59,4.8.89,7.2.31,2.4.8,4.78,1.19,7.17.43,2.39.78,4.79,1.29,7.17,2.05,9.5,4.37,18.99,7.51,28.25.79,2.33,1.58,4.69,2.38,7.07.91,2.34,1.82,4.71,2.75,7.11,1.73,4.83,3.99,9.55,6.08,14.44.27.61.52,1.22.81,1.83l.89,1.8c.59,1.2,1.19,2.41,1.79,3.62.6,1.21,1.2,2.43,1.8,3.65.59,1.23,1.2,2.45,1.89,3.64,2.69,4.78,5.27,9.72,8.36,14.45,5.82,9.67,12.77,18.95,20.19,28.08,3.88,4.42,7.67,9,11.94,13.19,1.04,1.07,2.09,2.14,3.14,3.21,1.04,1.08,2.09,2.16,3.22,3.15,2.22,2.03,4.44,4.07,6.67,6.11.43.37,1.03.92,1.77,1.63.77.67,1.69,1.48,2.74,2.39,2.07,1.84,4.63,4.1,7.38,6.55,2.87,2.3,5.96,4.76,8.96,7.17.74.61,1.52,1.17,2.29,1.71.77.54,1.53,1.08,2.28,1.6,1.5,1.04,2.95,2.03,4.3,2.96l2.89,1.82,2.98,1.67,5.93,3.33c14.57,8.91,31.29,16.71,47.48,22.37,16.18,5.73,31.77,9.33,43.84,11.74,14.32,2.71,28.19,3.88,41.56,4.02,13.38,0,26.23-.98,38.76-2.49,18.76-2.41,43.17-8.52,65.32-18.41,22.38-9.42,42.19-22.37,55.55-31.52,1.66-1.18,5.19-3.69,8.83-6.97,1.85-1.6,3.82-3.3,5.72-4.95.97-.8,1.85-1.69,2.72-2.51.87-.83,1.71-1.62,2.49-2.36l4.65-3.93,1.16-.99,1.11-1.04,2.23-2.08c1.5-1.56,2.82-3.05,4.04-4.48.61-.72,1.2-1.43,1.78-2.13.54-.73,1.08-1.46,1.61-2.18,2.12-2.91,4.29-5.76,7.04-9.08,8.87-10.79,17.29-23.05,24.64-35.91,7.33-12.86,13.68-26.29,18.45-39.34.31-.81.65-1.61.94-2.42.28-.82.55-1.63.83-2.44.55-1.62,1.1-3.22,1.64-4.8.54-1.59,1.07-3.15,1.6-4.71.46-1.57.91-3.13,1.36-4.66.45-1.53.9-3.05,1.34-4.54.45-1.49.9-2.96,1.23-4.43.74-2.93,1.46-5.76,2.14-8.48.18-.68.35-1.35.52-2.02.14-.67.28-1.34.42-2,.28-1.32.56-2.6.83-3.86.53-2.52,1.12-4.9,1.58-7.16.83-4.54,1.64-8.53,2.42-11.85-.17,2.33-.69,7.97-.95,12.11-.39,4.12-.54,6.73.58,3Z"/>
          <path class="cls-2" d="M481.85,103.65c.93.74-.02-.58-1.67-2.62-1.72-1.96-4.21-4.57-6.13-6.55,1.49,1.93,2.68,3.49,4.29,5.58.83,1.02,1.71,2.22,2.79,3.67,1.09,1.44,2.38,3.11,3.98,5.13l-5.16-6.12c-.84-1.04-1.77-1.99-2.68-2.97l-2.73-2.92c-3.3-2.7-.64.21,1.98,2.97.66.69,1.31,1.37,1.87,1.95.56.58.97,1.11,1.24,1.41.51.62.33.42-1.32-1.28-5.98-6.47-10.61-11.63-7.32-8.94.81,1.26,3.55,3.88,7.1,7.78,1.14.14-4.57-6.3-7.6-10.16l8.65,9.16c.73.75,1.42,1.55,2.1,2.35l2.05,2.4,4.09,4.79-5.53-5.64Z"/>
          <path class="cls-2" d="M513.25,149.91c-.83-1.54-1.63-3.09-2.48-4.62-.82-.86-.58-.23.06,1.24.63,1.47,1.73,3.73,2.82,5.99-1.28-2.48-2.23-4.36-2.92-5.77-.67-1.41-1.19-2.29-1.44-2.88-.53-1.17-.24-1.03.2-.66.88.75,2.37,2.47-.87-3.45-.28-.1,1.35,2.85,2.82,5.61,1.35,2.83,2.57,5.45,1.8,4.54Z"/>
          <path class="cls-2" d="M495.82,126.36c-1.13-2.13-2.55-4.07-3.9-5.95-1.35-1.87-2.68-3.62-3.87-5.2-.6-.78-1.14-1.54-1.67-2.21-.54-.66-1.02-1.28-1.44-1.84-.83-1.11-1.38-2-1.54-2.6,1.3,1.68,2.66,3.32,3.91,5.03l3.69,5.2,3.68,5.19,3.42,5.37-2.29-2.99Z"/>
          <path class="cls-2" d="M546.57,283.67c.08,3.77.1,4.71.05,6.25-.03.77-.07,1.69-.14,3.19-.03.75-.08,1.64-.12,2.73-.09,1.09-.2,2.37-.33,3.91.1-1.48.23-2.96.32-4.44l.12-4.45c.07-2.96.19-5.93.2-8.89,0,.56-.05,1.13-.1,1.69Z"/>
          <path class="cls-2" d="M340.66,542.57c1.24-.17,2.42-.44,3.61-.68,1.18-.24,2.36-.48,3.54-.73,2.36-.5,4.77-.97,7.33-1.58,2.54-.68,5.25-1.44,8.28-2.32,1.51-.46,3.13-.86,4.78-1.48,1.66-.6,3.41-1.23,5.28-1.91-1.88.72-3.75,1.4-5.58,2.06-1.84.64-3.68,1.13-5.45,1.66-1.77.5-3.49.98-5.12,1.44-.82.22-1.62.44-2.4.65-.78.2-1.55.35-2.3.51-2.97.63-5.56,1.15-7.6,1.56-2.04.41-3.55.69-4.38.8Z"/>
          <path class="cls-2" d="M186.97,530.08c.51-.19-4.25-2.11,2.53.28,3,1.3-1.61.72,9.13,3.65-3.91-1.25-7.84-2.42-11.66-3.93Z"/>
          <path class="cls-2" d="M175.77,523.63l-6.09-3.36c-.14.05,2.15,1.38,6.09,3.36Z"/>
          <path class="cls-2" d="M532.32,376.58l-.57.93c-.23.73-.5,1.6-.75,2.39.4-1.01.79-2,1.32-3.33Z"/>
          <path class="cls-2" d="M522.28,398.85c1.43-2.46,2.59-5.05,3.87-7.59,1.23-2.56,2.55-5.09,3.7-7.69.4-1.34.77-2.45,1.15-3.67-2.05,5.28-3.08,6.85-4.04,8.74-.49.94-.99,1.95-1.69,3.5-.34.78-.74,1.69-1.22,2.79-.45,1.12-1.05,2.39-1.77,3.91Z"/>
          <path class="cls-2" d="M530.76,379.13l.99-1.62c4.37-14.06,7.88-19.68,12.04-40.39-1.01,3.71-1.89,7.49-2.94,11.2-1.08,3.7-2.16,7.38-3.22,10.98-1.18,3.56-2.33,7.04-3.44,10.38-.27.84-.55,1.66-.81,2.48-.3.8-.6,1.6-.9,2.38-.59,1.57-1.16,3.1-1.72,4.58Z"/>
          <path class="cls-2" d="M535.63,362.73l.7-2.87c.23-.95.39-1.93.58-2.9,1.47-5.02,1.7-4.51,1.82-4.24l1.35-5.31c.42-1.78.75-3.57,1.13-5.36.06-1.13-.35.09-1.04,2.68-.17.65-.36,1.38-.57,2.18-.24.79-.5,1.66-.77,2.58-.54,1.84-1.14,3.89-1.77,6.05-2.52,8.62-6.1,18.62-7.79,22.68,1.11-2.56,2.32-5.08,3.35-7.68l3.03-7.82Z"/>
          <path class="cls-2" d="M540.55,260.22c.01.16.03.29.04.45-.01-.17-.02-.31-.04-.49,0,.02,0,.05,0,.05Z"/>
          <path class="cls-2" d="M539.54,291.19l1.23,1.53c.05-3.5.15-6.27.27-8.72.12-2.45.08-4.56.15-6.73.04-2.17.08-4.38.07-7.03-.12-2.64-.33-5.71-.66-9.58-.01-.16-.03-.29-.04-.45-.22,1.4-.29,3.35-.27,5.65,0,1.15.04,2.4.08,3.71.03,1.31-.02,2.69-.01,4.11-.02,2.84-.04,5.85-.07,8.84-.17,2.98-.42,5.94-.74,8.66Z"/>
          <path class="cls-2" d="M511.87,415.86c1.73-3.11,3.41-6,4.85-8.72,1.36-2.76,2.6-5.28,3.67-7.55.53-1.13,1.03-2.2,1.49-3.19.46-.99.79-1.95,1.13-2.82.65-1.73,1.13-3.16,1.4-4.25l-2.7,6c-.97,1.97-1.99,3.91-2.98,5.87l-2.99,5.85-3.27,5.71c5.37-8.45.16.83-.6,3.1Z"/>
          <path class="cls-2" d="M498.15,433.15l1.77-2.56.88-1.28.82-1.32,3.28-5.29-3.24,4.41c-.06.26-.35.88-.89,1.9-.57,1-1.45,2.36-2.62,4.15Z"/>
          <path class="cls-2" d="M501.65,427.1c.09-.58-.89.92-3.65,4.66,1.25-1.53,2.51-3.05,3.65-4.66Z"/>
          <path class="cls-2" d="M513.3,405.24c-2.2,3.24-3.09,4.81-4.22,7.11-.57,1.15-1.22,2.46-2.16,4.24-.95,1.77-2.34,3.92-4.2,6.82.09.7,1.98-2.26,4.27-6.17,2.1-4,4.68-8.9,6.31-12.01Z"/>
          <polygon class="cls-2" points="480.93 452.65 477.52 455.62 477.49 457.05 480.93 452.65"/>
          <path class="cls-2" d="M402.99,520.42c5.69-3.6,3.86-2.83.47-1.13-3.45,1.6-8.57,3.92-9.21,4.01l8.74-2.87Z"/>
          <path class="cls-2" d="M469.37,462.53l3.54-2.51c.41-.64.82-1.29,1.19-1.97,2.28-2.64,5.71-6.75,7.98-8.82.57-1.42-1.42.71-4.12,3.81-1.34,1.56-2.88,3.35-4.35,5.07-1.52,1.68-3.05,3.22-4.24,4.42Z"/>
          <path class="cls-2" d="M430.56,499.02l-5.64,3.57c-.93.61-1.89,1.16-2.87,1.7l-2.9,1.64"/>
          <path class="cls-2" d="M487.19,436.67c-.02-.27-3.22,3.24-4.68,4.66-.73.71-1.04.9-.3-.15.37-.53.99-1.37,1.96-2.61.94-1.26,2.32-2.84,3.88-5.1-1.19,1.75-2.67,3.56-4.04,5.29-1.37,1.73-2.65,3.34-3.64,4.54-1.98,2.41-2.77,3.16-.69-.1-1.04,1.35-1.83,2.38-2.47,3.12-.62.76-1.03,1.28-1.28,1.65-.51.73-.4.8-.19.77.42-.05,1.26-.51-1.54,3.09,1.12-1.51,2.25-2.87,3.37-4.16.57-.63,1.12-1.26,1.67-1.87.54-.62,1.06-1.24,1.59-1.85,2.12-2.43,4.25-4.72,6.38-7.29Z"/>
          <path class="cls-2" d="M464.93,461.65c-1.18,1.17-2.43,2.41-3.69,3.65-1.31,1.19-2.62,2.38-3.87,3.52-2.48,2.28-4.66,4.37-5.94,5.83,2.49-2.35,4.95-4.43,7.27-6.48,1.15-1.04,2.32-2.01,3.33-3.13,1.02-1.1,1.99-2.22,2.89-3.39Z"/>
          <path class="cls-2" d="M459.19,464.57c2.38-2.03,4.68-4.16,7.03-6.25l-4.64,3.54c-.8.9-1.55,1.85-2.39,2.71Z"/>
          <line class="cls-2" x1="346.57" y1="536.26" x2="347.21" y2="537.31"/>
          <path class="cls-2" d="M429.41,489.97c3.19-2.41,6.31-4.91,9.47-7.36,1.61-1.19,3.06-2.58,4.58-3.86l4.53-3.93c-2.79,2.27-5.55,4.56-8.35,6.8l-8.67,6.38c-1.24,1.08-2.31,1.87-3.14,2.53-.84.66-1.45,1.15-1.87,1.51-.84.72-.91.88-.4.64,1-.51,4.39-2.51,8.13-5.32-2.11,1.45-3.75,2.57-4.28,2.6Z"/>
          <path class="cls-2" d="M450.24,475.07c.9-.81,1.71-1.71,2.56-2.58l2.51-2.62c.02-.17-1.92,1.63-4.76,4.22-2.96,2.45-6.78,5.74-10.43,8.65,4.91-3.84,9.3-7.38,10.12-7.66Z"/>
          <path class="cls-2" d="M440.11,482.73c-2.16,1.56-4.36,3.15-6.42,4.65,1.85-1.29,4.03-2.87,6.42-4.65Z"/>
          <path class="cls-2" d="M287.39,545.63c3.76.02,7.51-.34,11.26-.55,1.87-.14,3.76-.21,5.63-.4l5.61-.63c-2.09.19-4.1.37-6.04.55-1.94.12-3.82.23-5.67.34-3.68.22-7.2.6-10.79.69Z"/>
          <path class="cls-2" d="M414.31,498.88l-2.88,1.79-.4,1.32c5.83-3.83,3.2-2.84,3.28-3.1Z"/>
          <path class="cls-2" d="M388.6,511.17c-1.44.52-3.15,1.4-5.11,2.17-1.94.82-4.03,1.75-6.09,2.69-1.03.47-2.05.95-3.04,1.4-.98.47-1.98.83-2.89,1.22-1.84.75-3.46,1.4-4.65,1.89,1.85-.52,3.75-1.11,5.68-1.74.48-.16.97-.32,1.46-.48.48-.19.97-.38,1.45-.57.97-.39,1.96-.79,2.97-1.2,2-.83,4.07-1.68,6.21-2.57,2.13-.9,4.25-2,6.51-3.02-8.96,4.19-2.72.72-2.5.21Z"/>
          <path class="cls-2" d="M361.46,521.16c3.15-1.13,6.27-2.33,9.4-3.49l2.35-.88,2.31-.99,4.61-1.98c-1.99.29-4.62,1.47-7.8,2.86-3.21,1.31-6.9,2.99-10.87,4.47Z"/>
          <path class="cls-2" d="M330.43,530.07c-1.74.47-.34.45-3.81,1.37,1.48-.12,3.9-.61,6.56-1.16,2.66-.58,5.57-1.14,7.96-1.8-.89.16-1.77.34-2.66.49l-2.69.37-5.36.73Z"/>
          <path class="cls-2" d="M482.06,447.54c-1.99,2.45-3.97,4.69-5.82,6.9-.93,1.1-1.84,2.17-2.74,3.23-.89,1.07-1.87,2.03-2.78,3.03l2.26-2.26,2.14-2.37,4.28-4.75c2.93-3.1,5.49-6.51,8.21-9.8-1.85,1.95-3.64,3.82-5.56,6.01Z"/>
          <path class="cls-2" d="M373.17,28.05c-1.64-.52-3.37-1.07-5.17-1.64-1.82-.51-3.73-1.03-5.7-1.58-1.96-.56-3.99-1.13-6.08-1.73-2.09-.57-4.27-1.04-6.48-1.58-2.21-.54-4.46-1.08-6.75-1.64-2.31-.46-4.65-.92-7.02-1.39-2.37-.44-4.75-1-7.17-1.37-2.42-.37-4.85-.74-7.29-1.11l-3.65-.56c-1.21-.2-2.44-.28-3.66-.43-2.44-.26-4.87-.52-7.28-.78-2.4-.31-4.8-.42-7.17-.56-2.36-.14-4.69-.29-6.98-.43-1.14-.09-2.28-.11-3.4-.12-1.12-.02-2.23-.03-3.33-.05-2.19-.03-4.33-.06-6.4-.09-4.14.01-8.02.23-11.54.32-11.59.49-23.9,1.6-36.44,4.07-12.55,2.37-25.43,5.63-38.1,10.2-1.59.56-3.2,1.06-4.78,1.67-1.57.62-3.15,1.25-4.72,1.87-1.58.63-3.15,1.25-4.73,1.88-.79.32-1.59.61-2.36.96l-2.33,1.06c-3.1,1.41-6.21,2.83-9.32,4.24-3.04,1.56-6.08,3.13-9.13,4.7l-2.28,1.17c-.75.4-1.49.85-2.23,1.27l-4.45,2.56-4.44,2.56c-1.47.87-2.88,1.83-4.32,2.74l-4.3,2.76c-1.42.94-2.89,1.78-4.25,2.8-2.77,1.96-5.52,3.92-8.27,5.87l.15-.55c-2.22,1.43-4.3,3.14-6.48,4.77-2.16,1.66-4.39,3.32-6.59,5.07-2.14,1.83-4.31,3.68-6.5,5.55-1.09.94-2.19,1.88-3.3,2.83-1.08.98-2.12,2.01-3.19,3.02-2.13,2.03-4.28,4.09-6.44,6.16-2.11,2.12-4.15,4.36-6.24,6.56-1.04,1.11-2.08,2.22-3.13,3.33-1.06,1.1-2,2.31-3.01,3.47-1.98,2.34-3.98,4.69-5.97,7.05-15.46,19.29-28.59,41.07-37.68,62.38l1.46-2.14c.4-.89.81-1.81,1.22-2.74.44-.91.91-1.81,1.35-2.69.89-1.75,1.72-3.36,2.37-4.58,1.31-2.44,1.92-3.29.87-.44-1.19,2.3-2.49,4.8-3.79,7.29-1.22,2.53-2.36,5.1-3.46,7.44-2.26,4.65-3.82,8.61-4.55,9.99-.71,2.58-1.46,5.13-2.12,7.7-1.2,3.08-1.76,3.19-2.67,4.74-.45.77-1,1.9-1.75,3.95-.81,2.03-1.6,5.03-2.68,9.51-.15,1.38-.45,3.03-.86,4.86-.39,1.84-.75,3.89-1.24,6.03-.47,2.14-1,4.39-1.54,6.65-.51,2.27-.91,4.57-1.37,6.78-.43,2.22-.85,4.36-1.23,6.33-.3,1.98-.52,3.8-.69,5.35-.33,3.1-.36,5.15.14,5.39-.57,1.77-.9,4.21-1.17,6.99-.25,2.78-.53,5.91-.61,9.1,0,3.19,0,6.44,0,9.46,0,.75,0,1.49,0,2.21.03.72.05,1.42.08,2.1.05,1.36.09,2.62.11,3.76.28-2.06.52-4.11.83-6.16-.06,4.72-.12,9.38-.18,13.85.13,4.47.18,8.77.32,12.77.28,3.98.55,7.67.83,10.93.11,1.64.38,3.14.59,4.53.22,1.39.44,2.66.66,3.79.9,5.79,2.46,12,3.91,18.54.89,3.23,1.81,6.54,2.73,9.89.23.84.47,1.68.7,2.52.27.83.55,1.66.82,2.5.55,1.67,1.1,3.34,1.66,5.02.56,1.68,1.1,3.37,1.69,5.04.64,1.65,1.28,3.31,1.92,4.96,1.31,3.29,2.47,6.62,3.96,9.77,1.43,3.18,2.81,6.32,4.23,9.37,1.54,2.99,3.04,5.92,4.5,8.75.79,2.84-2.18-3.15-4.55-7.95-2.23-4.86-3.78-8.59-1.04-.8,5.71,10.83,12.24,22.5,19.97,34.32,7.86,11.72,16.89,23.55,27.05,34.81,20.2,22.61,45.62,42.24,71.7,55.44-1.4-.89-5.91-3.52-2.51-1.83,9.68,6.13,23.85,12.17,41.69,18.68-.57-.41-2.52-1.08-5.12-2.24-2.62-1.11-5.99-2.47-9.54-3.88-3.49-1.56-7.15-3.2-10.43-4.67-1.66-.7-3.16-1.49-4.52-2.18-1.36-.69-2.56-1.3-3.53-1.79,2.97.45,3.96,1.11,6.96,2.84,1.52.81,3.55,1.88,6.58,3.31,1.52.7,3.27,1.55,5.37,2.39,2.12.8,4.55,1.7,7.35,2.68-1.52-.68-4.59-2.04-4.3-2.12,11.05,4.08,13.26,4.77,14.73,5.62.74.39,1.32.73,2.81,1.31.74.29,1.71.63,3.04,1.07,1.34.39,3.05.83,5.26,1.39l-4.74-1.58c-1.57-.57-3.12-1.2-4.67-1.79,2.11.67,3.76,1.25,5.11,1.62,1.36.36,2.38.62,3.19.83,1.62.41,2.38.57,3.22.73,1.68.28,3.6.85,13.41,2.71-1.55.17,0,.96,2.6,1.86.65.22,1.36.47,2.11.67.75.19,1.54.38,2.32.57,1.56.37,3.12.7,4.41.94,2.36.22,21.37,2.71,19.04,1.49,3,.47,5.74.84,8.28,1.15,1.27.14,2.49.28,3.66.41,1.18.1,2.31.13,3.41.18,2.2.09,4.25.14,6.22.17,1.97.03,3.87.06,5.75-.06,3.76-.18,7.47-.28,11.65-.42,2.09-.12,4.3-.21,6.7-.27,2.4-.08,5-.01,7.84-.17,4.87-.98,2.46-.93-1.04-.74-1.75.14-3.79.11-5.34.11-1.55-.02-2.6-.09-2.39-.28,2.95-.31,5.3-.43,7.13-.69,1.83-.23,3.18-.37,4.15-.45,1.95-.16,2.45-.06,2.47.12.05.36-1.79,1.06,2.48.7.93-.18,2.23-.3,3.79-.64,1.56-.3,3.4-.65,5.44-1.03,2.04-.39,4.29-.76,6.64-1.24,2.34-.53,4.81-1.09,7.32-1.65,5.05-1.01,10.16-2.54,14.89-3.71,2.38-.56,4.59-1.28,6.64-1.86,2.05-.59,3.92-1.12,5.54-1.54l.6-.96c.61-.17,1.24-.35,1.88-.53.63-.21,1.27-.43,1.91-.65,1.3-.44,2.63-.9,4-1.37,1.37-.47,2.76-.96,4.18-1.45.71-.25,1.42-.5,2.14-.75.71-.28,1.41-.57,2.13-.86,2.85-1.16,5.75-2.34,8.62-3.52,1.45-.56,2.84-1.25,4.23-1.89,1.39-.65,2.77-1.29,4.12-1.92,10.84-5.03,19.84-10.22,23.36-11.88,6.56-5.46-6.91,3.52-19.56,10.03-.72.2-.44-.07.47-.64.92-.56,2.41-1.54,4.2-2.59,3.57-2.14,8.29-4.71,11.2-6.53-1.5.93-2.56,1.46-3.66,2.05-1.12.55-2.28,1.16-3.94,2.29-.59-.04,1.39-1.21,3.92-2.63,2.46-1.54,5.45-3.34,7-4.41,5.28-3.14,7.26-4.65,7.66-4.81.38-.2-.92.78-2.59,2.02-3.42,2.37-8.43,5.61-3.98,3.08.96-.63,2.11-1.37,3.36-2.19,1.22-.86,2.54-1.8,3.88-2.76,2.68-1.93,5.52-3.88,7.78-5.61,4.45-3.58,6.98-5.78,2.91-3.23,3.85-3.02,6.26-4.71,7.67-5.82,1.43-1.09,2.02-1.42,2.4-1.54.76-.24.65.33,4.66-2.85-3.01,2.35-5.43,4.42-7.59,6.24-2.21,1.75-4.1,3.32-5.89,4.82-.9.75-1.78,1.47-2.66,2.2-.88.73-1.77,1.45-2.75,2.1-1.93,1.35-4.01,2.71-6.48,4.18-3.08,2.57-1.72,1.97,2.54-.65,1.68-1.18,3.54-2.5,5.52-3.9,1.92-1.48,3.96-3.04,6.03-4.63,1.04-.79,2.09-1.6,3.14-2.4l1.57-1.2,1.51-1.27c2-1.69,3.97-3.36,5.84-4.94.93-.79,1.84-1.57,2.71-2.31.87-.75,1.64-1.53,2.41-2.25,1.51-1.44,2.86-2.74,3.96-3.84,2.2-2.19,3.44-3.56,3.16-3.63,2.08-1.76,4.08-3.61,6.13-5.42l2.5-3.15c.83-1.05,1.68-2.08,2.44-3.19l2.34-2.42c-.72.65-1.52,1.39-2.37,2.2-.42.41-.86.83-1.32,1.26-.47.42-.95.85-1.44,1.29-1.94,1.78-4.04,3.7-6.11,5.58-1.04.93-2.02,1.9-3.05,2.76-1.03.85-2.03,1.66-2.97,2.43-1.88,1.52-3.53,2.81-4.78,3.67-.59.25,1.03-1.38,3.28-3.54,1.13-1.08,2.41-2.29,3.66-3.48,1.23-1.2,2.34-2.44,3.27-3.42l3.56-2.53c1.22-1.25,2.24-2.32,3.1-3.27.88-.94,1.51-1.84,2.12-2.61,1.18-1.57,2.02-2.83,2.96-4.21.94-1.38,2-2.87,3.59-4.93,1.51-2.13,3.54-4.82,6.53-8.55-1.61,2.51-1.53,2.79-.37,1.63.58-.58,1.44-1.52,2.49-2.72,1.02-1.22,2.17-2.75,3.46-4.43,1.28-1.69,2.67-3.53,4.11-5.43.74-.94,1.4-1.95,2.08-2.95.68-1,1.36-2.01,2.03-3,1.35-1.99,2.67-3.93,3.89-5.71,1.15-1.83,2.2-3.5,3.09-4.92,2.78-6.9,2.23-6.66,1.6-6.21-.32.23-.66.52-.63.02.03-.5.48-1.77,1.48-4.77.78-1.58,1.61-3.26,2.48-5.03.43-.89.88-1.8,1.33-2.72.22-.46.45-.93.68-1.41.21-.48.42-.97.63-1.46.84-1.97,1.71-4,2.59-6.08.87-2.08,1.84-4.18,2.61-6.38,3.35-8.69,6.49-17.83,9.01-25.91-.33,1.22-.64,2.35-.92,3.39-.29,1.04-.62,1.97-.88,2.83-.54,1.71-.97,3.1-1.31,4.2-.67,2.2-.96,3.27-.99,3.56-.05.59.96-1.93,2.07-4.68,1.1-2.76,2.34-5.75,2.61-6.12.14-.18.17.32-.21,1.84-.38,1.51-1.11,4.05-2.29,7.98,1.14-3.25,2.13-6.22,3.01-9.25.79-3.06,1.56-6.14,2.49-9.56,2.82-4.81-1.58,10.26,1.95,1.51l-.18-3.13c1.45-4.7,2.75-8.42,4.2-13.34,1.2-4.97,2.87-11.09,4.04-20.74-.1-1.19.09-4.21.13-8.03.05-1.9.14-4,.27-6.16.08-1.08.15-2.17.23-3.27.04-1.1.09-2.19.15-3.27.4-1.33.68-2.36.92-5.3.06-.74.12-1.59.17-2.6.03-.51.05-1.05.08-1.63,0-.59,0-1.22,0-1.89-.02-2.71-.07-6.17-.17-10.67-1.04-8.66-1.63-10.77-1.85-9.03-.12.88-.15,2.72-.14,5.2,0,1.24.06,2.64.02,4.17-.04,1.52-.08,3.17-.12,4.9-.09,3.45-.06,7.22-.39,10.97-.13,1.88-.25,3.75-.37,5.59-.13,1.83-.22,3.63-.46,5.33-.41,3.41-.81,6.5-1.18,8.93-.32,2.44-.82,4.21-1.12,5.02-.42,3.04-.81,5.9-1.18,8.6-.41,2.69-.99,5.2-1.45,7.58-.51,2.38-.94,4.63-1.48,6.75-.59,2.11-1.15,4.11-1.69,6.04-.56,1.91-1.11,3.75-1.63,5.54-.63,1.75-1.24,3.45-1.84,5.13-.62,1.66-1.22,3.3-1.83,4.93-.31.81-.59,1.63-.93,2.44-.35.8-.69,1.61-1.04,2.41-1.42,3.23-2.76,6.56-4.36,10.1-1.65,3.52-3.42,7.3-5.4,11.53-1.05,2.08-2.15,4.28-3.32,6.61-.57,1.17-1.16,2.37-1.77,3.61-.63,1.22-1.34,2.46-2.03,3.75-1.38,2.57-2.85,5.3-4.41,8.21-1.67,2.84-3.44,5.86-5.32,9.07-.98,2.15-1.77,3.5-2.35,4.67-.6,1.16-1.07,2.08-1.68,3.22-.62,1.14-1.38,2.5-2.56,4.52-1.2,2.01-2.99,4.58-5.45,8.29-2.9,5.53,1.18.37,6.79-7.36,1.32-1.99,2.73-4.13,4.17-6.3.72-1.08,1.44-2.18,2.15-3.26.72-1.08,1.33-2.21,1.99-3.27,1.28-2.15,2.51-4.19,3.62-5.98.56-.89,1.08-1.72,1.56-2.48.45-.77.85-1.46,1.22-2.05l-.85,1.93c-.29.64-.62,1.25-.93,1.87-.64,1.23-1.27,2.46-1.89,3.66-1.28,2.39-2.53,4.72-3.93,6.77,1.31-1.44,2.52-2.96,3.79-4.45-.86,1.58-1.64,3.02-2.36,4.34-.79,1.27-1.5,2.41-2.15,3.45-1.31,2.07-2.38,3.7-3.29,5.03-1.78,2.68-3.04,4.05-4.2,5.35-1.16,1.3-2.26,2.51-3.95,4.7-.41.55-.87,1.16-1.38,1.84-.49.7-1.07,1.44-1.73,2.27-1.3,1.66-2.85,3.69-4.73,6.21l3.22-4.57c-2.88,3.86-5.66,7.81-8.8,11.47l2.3-2.38c-2.87,3.4-4.6,5.74-6.76,8.5-2.21,2.71-5.01,5.69-9.83,10.5l7.35-8.73c-4.94,5.88-7.04,6.61-14.81,14.3,2.06-2.24,3.32-3.77,4.41-5.06.55-.64,1.05-1.22,1.57-1.83.5-.61,1.04-1.23,1.68-1.91-11.65,11.08-22.73,20.21-34.01,28.36-4.86,3.44-9.62,6.99-14.69,10.04l-3.74,2.37-1.87,1.18c-.63.39-1.28.73-1.92,1.1-2.57,1.44-5.13,2.88-7.69,4.31-10.38,5.47-20.97,10.43-31.9,14.29-5.4,2.13-10.97,3.69-16.46,5.43-2.76.82-5.57,1.46-8.35,2.2l-4.18,1.07c-1.39.36-2.81.59-4.21.9-2.81.57-5.62,1.14-8.42,1.71-2.82.48-5.66.87-8.48,1.31l-4.23.64c-1.42.17-2.84.29-4.26.44l-8.5.85c1.94-.07,4.3-.21,5.46-.28-2.01.31-3.85.56-5.54.74-1.7.11-3.26.18-4.72.21-2.91.07-5.41.03-7.8-.05-4.24,0-8.48,0-12.72,0-4.24-.21-8.47-.39-12.69-.64-4.6-.32-8.99-.51-13.31-.9-2.16-.24-4.3-.48-6.45-.72-2.15-.27-4.33-.41-6.5-.82-8.73-1.37-17.98-3-28.89-6.1-.84-.79.64-.58,3.31.1-7.84-2.01-12.67-3.12-5.12-.5-1.7-.45-3.28-.84-4.75-1.28-1.46-.48-2.82-.93-4.12-1.36-2.58-.87-4.87-1.67-7.04-2.44-4.28-1.72-8.13-3.28-12.94-5.22,3.71,1.32,7.47,2.51,11.19,3.77,1.85.66,3.77,1.11,5.65,1.67l5.67,1.59c-4.65-1.71-6.99-2.25-9.74-2.94-2.7-.82-5.83-1.78-12-4.34-9.71-4.06-7.69-2.92-3.56-.8,1.03.53,2.2,1.12,3.34,1.71,1.16.54,2.31,1.07,3.29,1.52,1.94.92,3.19,1.6,2.48,1.55l-3.98-1.56-1.99-.78-1.95-.88c.66.38,1.31.78,1.98,1.16l2.02,1.06,4.06,2.13c-17.47-7.04-25.31-12.39-31.93-16.65l2.88,1.72,2.95,1.57,5.92,3.15c2.49.53-2.49-1.98-8.74-5.04-3.04-1.69-6.38-3.55-9.29-5.16-.72-.41-1.43-.8-2.07-1.2-.63-.42-1.23-.81-1.78-1.17-1.09-.73-1.98-1.36-2.57-1.84l1.58.89c-17.5-11.03,3.43,2.93-8.54-4.43l-9.84-7.52-9.44-7.97,2.82,3.24c-1.46-1.07-3.1-2.24-4.8-3.62-1.67-1.42-3.47-2.97-5.36-4.63-3.86-3.23-7.77-7.26-11.95-11.41-.52-.52-1.05-1.04-1.57-1.57-.52-.54-1.01-1.11-1.52-1.66-1.01-1.12-2.03-2.25-3.05-3.38-1.03-1.14-2.06-2.28-3.09-3.42l-1.55-1.73-1.47-1.8c-1.97-2.4-3.94-4.8-5.9-7.18-1.01-1.16-1.89-2.42-2.81-3.63-.91-1.21-1.82-2.42-2.72-3.61-1.03-1.35-2.1-2.75-3.2-4.21-1.05-1.49-2.14-3.03-3.25-4.62-1.13-1.58-2.28-3.19-3.46-4.84-.3-.41-.59-.82-.89-1.24-.28-.43-.56-.86-.84-1.29-.56-.87-1.13-1.74-1.7-2.62-2.28-3.52-4.72-7.09-6.83-10.91-1.09-1.89-2.19-3.78-3.29-5.68l-.82-1.42-.75-1.46c-.49-.98-.99-1.95-1.48-2.92.65,1.48,1.6,3.79,2.4,5.43.79,1.64,1.25,2.71.64,1.88-1.32-2.24-2.76-5.27-4.27-8.37-.75-1.55-1.52-3.13-2.26-4.64-.77-1.5-1.32-3.04-1.91-4.41-2.27-5.5-3.52-8.91-1.52-5.42l-1.61-3.3-1.45-3.37-2.91-6.75c-.49-1.22-.86-2.4-1.21-3.53-.34-1.13-.66-2.2-.97-3.21-.59-2.03-1.09-3.84-1.51-5.43l.86,3.91-1.43-4.19c-.51-1.39-.84-2.82-1.27-4.24l-2.45-8.51c.09.09-.11-1.48-.09-2,0-.26.07-.26.25.34.16.6.5,1.79,1.09,3.89-.57-2.39-1.01-4.88-1.52-7.44-.51-2.56-1.09-5.19-1.67-7.9-.49-2.73-1-5.54-1.53-8.43-.25-1.45-.59-2.91-.79-4.41-.21-1.5-.43-3.02-.65-4.56-.22-1.54-.44-3.1-.67-4.69-.11-.79-.22-1.59-.34-2.39-.07-.81-.15-1.62-.23-2.44-.29-3.28-.59-6.64-.89-10.1-.11-3.47-.22-7.02-.33-10.67-.09-1.82.02-3.67.06-5.54.06-1.87.13-3.76.2-5.67l.2,9.15c-.06-4.52,0-8.03.1-11.05.14-3.01.5-5.53.77-8.1.31-2.56.51-5.19,1-8.37.21-1.59.43-3.33.65-5.29.23-1.95.39-4.13.77-6.57l-.69,2.13-.59,2.15c.13-1.78.47-3.73.81-5.79.35-2.06.73-4.23,1.1-6.42.34-2.2.91-4.38,1.41-6.52.52-2.13,1.02-4.2,1.5-6.14.44-1.94,1.05-3.69,1.52-5.24.49-1.54.92-2.87,1.27-3.89.7-2.04,1.08-2.87.94-1.85-.54-1.16.08-3.09,1.14-5.76.51-1.34,1.09-2.87,1.62-4.61.27-.87.52-1.79.75-2.76.22-.98.42-2.01.65-3.07l4.44-7.57c.37-1.08.68-2.18,1.08-3.2.39-1.03.78-2.03,1.14-2.98.72-1.89,1.34-3.57,1.77-4.81.85-2.49.92-3.26-.63-.64,1.52-3.27,3.27-6.24,4.76-9.12,1.52-2.87,2.88-5.61,4.33-8.09,1.39-2.51,2.65-4.87,3.75-7.08.53-1.12,1.1-2.16,1.63-3.16.52-1,1-1.97,1.44-2.9.01-.05.08-.18.17-.34.04-.09.09-.19.13-.27l.02.02c.4-.69,1.17-1.94,2.05-3.36.88-1.42,1.86-3,2.77-4.28,1.77-2.59,2.8-4.26.74-1.9,2.38-3.37,4.26-6.17,5.99-8.37,1.74-2.19,3.15-3.91,4.33-5.32,1.18-1.41,2.12-2.51,2.95-3.45.83-.93,1.62-1.65,2.35-2.39,3.01-2.89,5.57-5.88,16.41-17.11.04-.56.1-1.1.15-1.66,17.29-16.68,35.86-31.54,51.38-41.23l2.54-.37c5.38-3.13,4.75-3.04,4.88-3.37.15-.28.93-1.25,9.64-5.59,2.52-1.06,4.81-1.88,4.49-1.45,2.13-1.01,4.41-1.94,6.74-2.96,1.17-.5,2.36-1.01,3.57-1.53,1.21-.53,2.44-1.05,3.73-1.5,5.11-1.86,10.49-3.97,16.33-5.65,5.76-1.93,11.97-3.38,18.37-5.07,3.24-.68,6.54-1.38,9.9-2.08.84-.18,1.68-.35,2.53-.53.85-.14,1.71-.28,2.57-.42,1.72-.28,3.46-.57,5.21-.86-.18.22-3.79,1-5.6,1.39,3.01-.54,6.48-1.15,10.2-1.82,3.75-.51,7.75-1.05,11.82-1.6,4.08-.42,8.24-.76,12.26-1.14,4.03-.26,7.93-.38,11.5-.56,2.05,0,4.15.22,6.3.35,2.15.14,4.35.28,6.59.43,1.12.05,2.25.17,3.39.3,1.14.12,2.29.25,3.45.38,2.32.25,4.69.5,7.09.75,2.39.36,4.81.73,7.27,1.1,2.45.39,4.96.67,7.45,1.22,5,1,10.13,1.86,15.25,3.2,2.57.64,5.17,1.19,7.76,1.89,2.58.74,5.17,1.48,7.77,2.23,1.3.38,2.61.72,3.91,1.13,1.29.43,2.58.87,3.87,1.3,2.59.86,5.18,1.73,7.78,2.6,2.56.98,5.12,1.97,7.68,2.95l3.84,1.46,3.77,1.64c2.51,1.09,5.02,2.17,7.52,3.26,2.46,1.16,4.89,2.38,7.32,3.55,1.91.82,3.84,1.52,5.64,2.37,1.81.84,3.57,1.66,5.3,2.46,1.73.79,3.42,1.57,5.06,2.32,1.62.79,3.17,1.62,4.7,2.39,1.53.77,3.01,1.52,4.44,2.24,1.43.73,2.85,1.38,4.14,2.13,2.62,1.45,5.06,2.77,7.32,3.96,1.13.59,2.21,1.16,3.24,1.69,1.01.57,1.96,1.1,2.86,1.61,1.81,1,3.42,1.84,4.83,2.52,2.82,1.36,4.8,2.06,5.79,2.1-2.86-3.36-10.74-10.95-23.31-20.14-12.55-9.18-30.04-19.64-51.36-28.3Z"/>
        </g>
      </g>
    </g>
  </g>
</svg>